<svg width="57" height="17" viewBox="0 0 57 17" fill="none" xmlns="http://www.w3.org/2000/svg">
<path d="M3.56 5.08V16H0.36V5.08H3.56ZM1.98 0.799999C2.44667 0.799999 2.84667 0.906666 3.18 1.12C3.51333 1.32 3.68 1.7 3.68 2.26C3.68 2.80667 3.51333 3.18667 3.18 3.4C2.84667 3.61333 2.44667 3.72 1.98 3.72C1.5 3.72 1.09333 3.61333 0.76 3.4C0.426667 3.18667 0.26 2.80667 0.26 2.26C0.26 1.7 0.426667 1.32 0.76 1.12C1.09333 0.906666 1.5 0.799999 1.98 0.799999Z" fill="white"/>
<path d="M10.918 1.72C12.158 1.72 13.178 1.84 13.978 2.08C14.778 2.30667 15.3713 2.68667 15.758 3.22C16.1446 3.74 16.338 4.44667 16.338 5.34C16.338 5.87333 16.2446 6.36 16.058 6.8C15.8713 7.24 15.618 7.6 15.298 7.88C14.9913 8.16 14.6446 8.34 14.258 8.42V8.52C14.658 8.61333 15.038 8.78 15.398 9.02C15.7713 9.26 16.0713 9.60667 16.298 10.06C16.5246 10.5133 16.638 11.1133 16.638 11.86C16.638 12.7267 16.4313 13.4733 16.018 14.1C15.618 14.7133 15.0446 15.1867 14.298 15.52C13.5513 15.84 12.658 16 11.618 16H6.49797V1.72H10.918ZM11.098 7.38C11.818 7.38 12.318 7.24 12.598 6.96C12.878 6.68 13.018 6.27333 13.018 5.74C13.018 5.19333 12.8513 4.8 12.518 4.56C12.198 4.32 11.6913 4.2 10.998 4.2H9.73797V7.38H11.098ZM9.73797 9.78V13.5H11.298C12.0446 13.5 12.5646 13.3267 12.858 12.98C13.1513 12.62 13.298 12.1467 13.298 11.56C13.298 11.2 13.2313 10.8867 13.098 10.62C12.978 10.3533 12.7646 10.1467 12.458 10C12.1646 9.85333 11.7513 9.78 11.218 9.78H9.73797ZM23.5742 4.86C24.9209 4.86 25.9609 5.18 26.6942 5.82C27.4409 6.44667 27.8142 7.41333 27.8142 8.72V16H25.5942L24.9742 14.52H24.8942C24.6009 14.9067 24.3009 15.2267 23.9942 15.48C23.6876 15.7333 23.3342 15.9133 22.9342 16.02C22.5342 16.14 22.0476 16.2 21.4742 16.2C20.8742 16.2 20.3342 16.08 19.8542 15.84C19.3876 15.5867 19.0142 15.2067 18.7342 14.7C18.4542 14.18 18.3142 13.5267 18.3142 12.74C18.3142 11.58 18.6942 10.7267 19.4542 10.18C20.2276 9.62 21.3609 9.31333 22.8542 9.26L24.6142 9.2V8.72C24.6142 8.14667 24.4876 7.72667 24.2342 7.46C23.9809 7.19333 23.6342 7.06 23.1942 7.06C22.7409 7.06 22.2676 7.14 21.7742 7.3C21.2809 7.44667 20.7876 7.63333 20.2942 7.86L19.3142 5.84C19.9009 5.53333 20.5476 5.29333 21.2542 5.12C21.9742 4.94667 22.7476 4.86 23.5742 4.86ZM23.6942 10.98C22.9076 11.0067 22.3542 11.18 22.0342 11.5C21.7276 11.82 21.5742 12.24 21.5742 12.76C21.5742 13.2133 21.6809 13.54 21.8942 13.74C22.1209 13.9267 22.4142 14.02 22.7742 14.02C23.2809 14.02 23.7142 13.8333 24.0742 13.46C24.4476 13.0733 24.6342 12.5333 24.6342 11.84V10.94L23.6942 10.98ZM42.8372 4.88C44.0239 4.88 44.9172 5.2 45.5172 5.84C46.1305 6.46667 46.4372 7.48 46.4372 8.88V16H43.2572V9.62C43.2572 8.83333 43.1372 8.24667 42.8972 7.86C42.6705 7.46 42.3239 7.26 41.8572 7.26C41.1905 7.26 40.7239 7.54 40.4572 8.1C40.1905 8.66 40.0572 9.46667 40.0572 10.52V16H36.8572V9.62C36.8572 9.1 36.8039 8.66667 36.6972 8.32C36.6039 7.97333 36.4572 7.71333 36.2572 7.54C36.0572 7.35333 35.7905 7.26 35.4572 7.26C35.0039 7.26 34.6439 7.4 34.3772 7.68C34.1239 7.96 33.9439 8.36667 33.8372 8.9C33.7305 9.43333 33.6772 10.0867 33.6772 10.86V16H30.4772V5.08H32.8972L33.3572 6.48H33.4772C33.6772 6.10667 33.9239 5.80667 34.2172 5.58C34.5239 5.34 34.8705 5.16667 35.2572 5.06C35.6572 4.94 36.0839 4.88 36.5372 4.88C37.2839 4.88 37.9105 5.01333 38.4172 5.28C38.9372 5.53333 39.3439 5.93333 39.6372 6.48H39.8172C40.1372 5.92 40.5639 5.51333 41.0972 5.26C41.6439 5.00667 42.2239 4.88 42.8372 4.88ZM56.5305 12.76C56.5305 13.4933 56.3705 14.12 56.0505 14.64C55.7438 15.1467 55.2705 15.5333 54.6305 15.8C53.9905 16.0667 53.1638 16.2 52.1505 16.2C51.4171 16.2 50.7771 16.1467 50.2305 16.04C49.6838 15.9467 49.1305 15.7867 48.5705 15.56V13.1C49.1838 13.3667 49.8171 13.5867 50.4705 13.76C51.1238 13.9333 51.6705 14.02 52.1105 14.02C52.5905 14.02 52.9305 13.9333 53.1305 13.76C53.3438 13.5867 53.4505 13.36 53.4505 13.08C53.4505 12.8933 53.3971 12.7267 53.2905 12.58C53.1838 12.4333 52.9705 12.2667 52.6505 12.08C52.3305 11.8933 51.8571 11.6533 51.2305 11.36C50.6171 11.0667 50.1105 10.78 49.7105 10.5C49.3238 10.2067 49.0305 9.86 48.8305 9.46C48.6438 9.04667 48.5505 8.53333 48.5505 7.92C48.5505 6.90667 48.9305 6.14667 49.6905 5.64C50.4638 5.13333 51.4771 4.88 52.7305 4.88C53.3971 4.88 54.0238 4.94667 54.6105 5.08C55.1971 5.21333 55.8038 5.43333 56.4305 5.74L55.5305 7.88C55.1838 7.72 54.8438 7.58 54.5105 7.46C54.1771 7.34 53.8571 7.24667 53.5505 7.18C53.2571 7.11333 52.9771 7.08 52.7105 7.08C52.3638 7.08 52.0971 7.14 51.9105 7.26C51.7371 7.38 51.6505 7.56 51.6505 7.8C51.6505 7.97333 51.7038 8.13333 51.8105 8.28C51.9171 8.41333 52.1238 8.56667 52.4305 8.74C52.7371 8.9 53.1838 9.10667 53.7705 9.36C54.3705 9.61333 54.8705 9.88 55.2705 10.16C55.6838 10.4267 55.9971 10.7667 56.2105 11.18C56.4238 11.58 56.5305 12.1067 56.5305 12.76Z" fill="#F07C62"/>
</svg>
